<?xml version="1.0" encoding="iso-8859-1"?>
<!-- Generator: Adobe Illustrator 19.1.0, SVG Export Plug-In . SVG Version: 6.00 Build 0)  -->
<svg version="1.1" id="Capa_1" xmlns="http://www.w3.org/2000/svg" xmlns:xlink="http://www.w3.org/1999/xlink" x="0px" y="0px"
	 viewBox="0 0 65.083 65.083" style="enable-background:new 0 0 65.083 65.083;" xml:space="preserve">
<g>
	<g id="group-70svg">
		<path id="path-1_67_" style="fill:#EDC951;" d="M57.045,50.509h8.038c0-8-6.133-14.695-14.008-15.548
			c3.926-0.792,6.883-4.478,6.883-8.64c0-4.745-4.313-8.812-9.059-8.812h-7.854v33H57.045z"/>
		<path id="path-2_67_" style="fill:#EDC951;" d="M28.983,37.058c-2.345-1.357-5.022-2.128-7.957-2.128
			C12.413,34.93,5.5,41.509,5.5,50.509h11.545l0,0"/>
		<path id="path-3_67_" style="fill:#EDC951;" d="M27.123,19.756c-1.543-1.543-3.673-2.497-6.028-2.497
			c-4.708,0-8.525,3.816-8.525,8.525c0,4.708,3.817,8.525,8.525,8.525c2.905,0,5.472-1.453,7.011-3.673l0,0"/>
		<path id="path-4_56_" style="fill:#8B71B5;" d="M18.947,54.324c0-10.422,8.449-18.872,18.872-18.872
			c10.421,0,18.871,8.45,18.871,18.872l0,0"/>
		<path id="path-5_40_" style="fill:#EDC951;" d="M48.135,24.575c0,5.698-4.619,10.317-10.316,10.317
			c-5.699,0-10.318-4.619-10.318-10.317c0-5.697,4.619-10.316,10.318-10.316C43.516,14.259,48.135,18.878,48.135,24.575z"/>
		<path id="path-6_31_" d="M52.69,53.823c-0.828,0-1.5-0.671-1.5-1.5c0-9.578-7.793-17.371-17.371-17.371
			c-9.579,0-17.372,7.793-17.372,17.371c0,0.829-0.672,1.5-1.5,1.5c-0.829,0-1.5-0.671-1.5-1.5c0-11.232,9.138-20.371,20.372-20.371
			c11.232,0,20.371,9.139,20.371,20.371C54.19,53.152,53.518,53.823,52.69,53.823z"/>
		<path id="path-7_19_" d="M33.819,34.392c-6.517,0-11.818-5.301-11.818-11.817c0-6.515,5.301-11.816,11.818-11.816
			c6.515,0,11.816,5.301,11.816,11.816C45.635,29.091,40.334,34.392,33.819,34.392z M33.819,13.759
			c-4.863,0-8.818,3.955-8.818,8.816c0,4.862,3.955,8.817,8.818,8.817c4.861,0,8.816-3.955,8.816-8.817
			C42.635,17.714,38.68,13.759,33.819,13.759z"/>
		<path id="path-8_8_" d="M13.045,49.509H1.5c-0.828,0-1.5-0.672-1.5-1.5c0-9.665,7.32-16.953,17.026-16.953
			c2.963,0,5.892,0.825,8.708,2.453c0.716,0.415,0.962,1.332,0.548,2.05c-0.416,0.717-1.334,0.962-2.05,0.548
			c-2.354-1.362-4.778-2.051-7.206-2.051c-7.485,0-13.247,5.256-13.952,12.453h9.971c0.828,0,1.5,0.672,1.5,1.5
			S13.873,49.509,13.045,49.509z"/>
		<path id="path-9_4_" d="M17.095,33.81c-5.528,0-10.025-4.498-10.025-10.026s4.497-10.025,10.025-10.025
			c2.678,0,5.195,1.043,7.089,2.936c0.586,0.586,0.586,1.537,0,2.122c-0.586,0.586-1.535,0.586-2.121,0
			c-1.327-1.327-3.091-2.058-4.968-2.058c-3.874,0-7.025,3.151-7.025,7.025c0,3.873,3.151,7.026,7.025,7.026
			c2.304,0,4.464-1.133,5.778-3.029c0.472-0.681,1.407-0.85,2.087-0.378c0.681,0.472,0.851,1.407,0.378,2.087
			C23.463,32.194,20.382,33.81,17.095,33.81z"/>
		<path id="path-10_3_" d="M61.083,49.509h-8.038c-0.828,0-1.5-0.672-1.5-1.5s0.672-1.5,1.5-1.5h6.456
			c-0.705-6.411-5.881-11.581-12.588-12.307c-0.735-0.079-1.303-0.683-1.337-1.422c-0.034-0.739,0.476-1.393,1.202-1.539
			c3.344-0.675,5.68-3.466,5.68-6.789c0-3.819-3.603-7.297-7.559-7.297c-0.828,0-1.5-0.671-1.5-1.5c0-0.829,0.672-1.5,1.5-1.5
			c5.625,0,10.559,4.812,10.559,10.297c0,3.166-1.465,5.993-3.844,7.818c6.481,2.469,10.969,8.626,10.969,15.739
			C62.583,48.837,61.911,49.509,61.083,49.509z"/>
	</g>
</g>
<g>
</g>
<g>
</g>
<g>
</g>
<g>
</g>
<g>
</g>
<g>
</g>
<g>
</g>
<g>
</g>
<g>
</g>
<g>
</g>
<g>
</g>
<g>
</g>
<g>
</g>
<g>
</g>
<g>
</g>
</svg>
