<?xml version="1.0" ?><svg id="Layer_1" style="enable-background:new 0 0 50 50;" version="1.1" viewBox="0 0 50 50" xml:space="preserve" xmlns="http://www.w3.org/2000/svg" xmlns:xlink="http://www.w3.org/1999/xlink"><style type="text/css">
	.st0{fill:#F0C4DB;}
	.st1{fill:#FF9D9C;}
	.st2{fill:#9BEAF9;}
	.st3{fill:#E9F4BC;}
	.st4{fill:#505050;}
	.st5{fill:#FEBECC;}
	.st6{fill:#FFFFFF;}
	.st7{fill:#FDE4A1;}
	.st8{fill:#FEE7B5;}
	.st9{fill:#CDF6FC;}
	.st10{fill:#F2C6DD;}
	.st11{opacity:0.1;}
</style><g><path class="st5" d="M19.69,3.69c-0.66,2.04-1.03,4.22-1.03,6.48c0,11.6,9.4,21,21,21c3.07,0,5.98-0.67,8.61-1.86V3.69H19.69z"/><g><g><path class="st3" d="M35.31,11.9v12.12H16.69c-1.1,0-2,0.89-2,2v5.44H4c-1.1,0-2-0.89-2-2V11.9c0-1.11,0.9-2,2-2h29.32     C34.42,9.9,35.31,10.79,35.31,11.9z"/><rect class="st1" height="4.24" width="33.31" x="2" y="13.56"/><path class="st2" d="M48,26.01v17.55c0,1.1-0.89,2-2,2H16.69c-1.1,0-2-0.89-2-2V26.01c0-1.1,0.9-2,2-2H46     C47.11,24.01,48,24.9,48,26.01z"/><rect class="st6" height="7.14" width="7.14" x="18.4" y="27.72"/></g><g><path class="st4" d="M7.47,10.65c0.42,0,0.75-0.33,0.75-0.75c0-0.41-0.33-0.74-0.75-0.74c-0.41,0-0.75,0.33-0.75,0.74     C6.72,10.32,7.06,10.65,7.47,10.65z"/><path class="st4" d="M46,23.26h-9.94V11.9c0-1.51-1.23-2.74-2.74-2.74H9.47c-0.41,0-0.75,0.33-0.75,0.74     c0,0.42,0.34,0.75,0.75,0.75h23.85c0.69,0,1.24,0.55,1.24,1.25v0.91H2.75V11.9c0-0.69,0.56-1.25,1.25-1.25h1.47     c0.42,0,0.75-0.33,0.75-0.75c0-0.41-0.33-0.74-0.75-0.74H4c-1.52,0-2.75,1.23-2.75,2.74v17.55c0,1.52,1.23,2.75,2.75,2.75h9.94     v11.36c0,1.51,1.23,2.75,2.75,2.75H46c1.51,0,2.75-1.23,2.75-2.75V26.01C48.75,24.49,47.52,23.26,46,23.26z M2.75,14.31h31.81     v2.74H2.75V14.31z M4,30.7c-0.69,0-1.25-0.56-1.25-1.25v-10.9h31.81v4.71H16.69c-1.51,0-2.75,1.23-2.75,2.75v4.69H4z      M47.25,43.56c0,0.69-0.56,1.25-1.25,1.25H16.69c-0.69,0-1.25-0.56-1.25-1.25V26.01c0-0.69,0.56-1.25,1.25-1.25H46     c0.69,0,1.25,0.56,1.25,1.25V43.56z"/><path class="st4" d="M18.4,35.61h7.14c0.41,0,0.75-0.34,0.75-0.75v-7.14c0-0.41-0.34-0.75-0.75-0.75H18.4     c-0.41,0-0.75,0.34-0.75,0.75v7.14C17.65,35.27,17.99,35.61,18.4,35.61z M19.15,28.47h5.64v5.64h-5.64V28.47z"/><path class="st4" d="M22.01,40.95h-4.43c-0.41,0-0.75,0.34-0.75,0.75s0.34,0.75,0.75,0.75h4.43c0.41,0,0.75-0.34,0.75-0.75     S22.43,40.95,22.01,40.95z"/><path class="st4" d="M29.71,40.95h-4.43c-0.41,0-0.75,0.34-0.75,0.75s0.34,0.75,0.75,0.75h4.43c0.41,0,0.75-0.34,0.75-0.75     S30.12,40.95,29.71,40.95z"/><path class="st4" d="M37.41,40.95h-4.43c-0.41,0-0.75,0.34-0.75,0.75s0.34,0.75,0.75,0.75h4.43c0.41,0,0.75-0.34,0.75-0.75     S37.82,40.95,37.41,40.95z"/><path class="st4" d="M45.11,40.95h-4.43c-0.41,0-0.75,0.34-0.75,0.75s0.34,0.75,0.75,0.75h4.43c0.41,0,0.75-0.34,0.75-0.75     S45.52,40.95,45.11,40.95z"/></g></g></g></svg>